<?xml version="1.0" encoding="UTF-8" standalone="no"?>
<!-- Created with Inkscape (http://www.inkscape.org/) -->
<svg
   xmlns:i="http://ns.adobe.com/AdobeIllustrator/10.0/"
   xmlns:dc="http://purl.org/dc/elements/1.1/"
   xmlns:cc="http://web.resource.org/cc/"
   xmlns:rdf="http://www.w3.org/1999/02/22-rdf-syntax-ns#"
   xmlns:svg="http://www.w3.org/2000/svg"
   xmlns="http://www.w3.org/2000/svg"
   xmlns:xlink="http://www.w3.org/1999/xlink"
   xmlns:sodipodi="http://sodipodi.sourceforge.net/DTD/sodipodi-0.dtd"
   xmlns:inkscape="http://www.inkscape.org/namespaces/inkscape"
   width="744.09448819"
   height="1052.3622047"
   id="svg2"
   sodipodi:version="0.32"
   inkscape:version="0.45.1"
   sodipodi:docbase="C:\Users\ppoi\Projects\infra\www\headquarters\src\figure"
   sodipodi:docname="emblem.svg"
   inkscape:output_extension="org.inkscape.output.svg.inkscape"
   inkscape:export-filename="C:\Users\ppoi\Projects\infra\www\headquarters\src\figure\emblem.png"
   inkscape:export-xdpi="96.480003"
   inkscape:export-ydpi="96.480003">
  <sodipodi:namedview
     id="base"
     pagecolor="#ffffff"
     bordercolor="#666666"
     borderopacity="1.0"
     gridtolerance="10000"
     guidetolerance="10"
     objecttolerance="10"
     inkscape:pageopacity="0.0"
     inkscape:pageshadow="2"
     inkscape:zoom="2.0028164"
     inkscape:cx="293.94754"
     inkscape:cy="593.46019"
     inkscape:document-units="px"
     inkscape:current-layer="layer2"
     inkscape:window-width="1024"
     inkscape:window-height="715"
     inkscape:window-x="-8"
     inkscape:window-y="24"
     showguides="true"
     inkscape:guide-bbox="true" />
  <defs
     id="defs4">
    <clipPath
       clipPathUnits="userSpaceOnUse"
       id="clipPath4420">
      <path
         sodipodi:type="inkscape:offset"
         inkscape:radius="-5.5741296"
         inkscape:original="M 254.75 451.78125 L 258 516.84375 L 302.375 541.9375 L 346.75 516.84375 L 350 451.78125 L 302.375 455.03125 L 254.75 451.78125 z "
         style="fill:#660099;fill-opacity:0.46946567;fill-rule:evenodd;stroke:none;stroke-width:4.22100019;stroke-linecap:butt;stroke-linejoin:miter;stroke-miterlimit:4;stroke-dasharray:none;stroke-opacity:1;display:inline"
         id="path4422"
         d="M 260.625,457.78125 L 263.40625,513.5 L 302.375,535.53125 L 341.34375,513.5 L 344.125,457.78125 L 302.75,460.59375 C 302.50028,460.61059 302.24972,460.61059 302,460.59375 L 260.625,457.78125 z "
         transform="translate(244.24107,-58.839373)" />
    </clipPath>
    <clipPath
       clipPathUnits="userSpaceOnUse"
       id="clipPath4769">
      <path
         transform="translate(936.94743,35.97158)"
         d="M 260.625,457.78125 L 263.40625,513.5 L 302.375,535.53125 L 341.34375,513.5 L 344.125,457.78125 L 302.75,460.59375 C 302.50028,460.61059 302.24972,460.61059 302,460.59375 L 260.625,457.78125 z "
         id="path4771"
         style="fill:#660099;fill-opacity:0.46946567;fill-rule:evenodd;stroke:none;stroke-width:4.22100019;stroke-linecap:butt;stroke-linejoin:miter;stroke-miterlimit:4;stroke-dasharray:none;stroke-opacity:1;display:inline"
         inkscape:original="M 254.75 451.78125 L 258 516.84375 L 302.375 541.9375 L 346.75 516.84375 L 350 451.78125 L 302.375 455.03125 L 254.75 451.78125 z "
         inkscape:radius="-5.5741296"
         sodipodi:type="inkscape:offset" />
    </clipPath>
  </defs>
  <metadata
     id="metadata7">
    <rdf:RDF>
      <cc:Work
         rdf:about="">
        <dc:format>image/svg+xml</dc:format>
        <dc:type
           rdf:resource="http://purl.org/dc/dcmitype/StillImage" />
      </cc:Work>
    </rdf:RDF>
  </metadata>
  <g
     inkscape:groupmode="layer"
     id="layer5"
     inkscape:label="枠"
     style="display:inline"
     sodipodi:insensitive="true">
    <rect
       style="fill:#cc99ff;fill-opacity:1;fill-rule:evenodd;stroke:#660099;stroke-width:10.17451763;stroke-linecap:butt;stroke-linejoin:miter;stroke-miterlimit:4;stroke-dasharray:none;stroke-dashoffset:0;stroke-opacity:1;display:inline"
       id="rect12930"
       width="223.02878"
       y="344.10812"
       x="169.97917"
       height="223.02876" />
  </g>
  <g
     style="display:inline"
     inkscape:label="桐葉"
     id="layer2"
     inkscape:groupmode="layer">
    <g
       id="g13005"
       transform="translate(0,-0.3308393)">
      <path
         transform="matrix(1.0003317,0,0,0.939361,23.658182,42.213182)"
         style="fill:#ffffff;fill-opacity:1;fill-rule:evenodd;stroke:#ffffff;stroke-width:2;stroke-linecap:butt;stroke-linejoin:miter;stroke-miterlimit:4;stroke-dasharray:none;stroke-opacity:1;display:inline"
         id="path6068"
         sodipodi:type="inkscape:offset"
         d="M 301.5625,449.03125 C 288.44416,448.60392 271.58053,451.63886 255.46875,464.46875 C 254.73038,465.05678 254.4531,466.05247 254.78125,466.9375 L 265.1875,495.21875 C 265.26333,495.42065 265.36864,495.6102 265.5,495.78125 L 275.9375,509.46875 L 275.96875,509.4375 C 277.10398,511.43003 278.98608,513.06891 281.34375,514.53125 C 283.82086,516.06767 286.80278,517.37903 289.90625,518.25 C 293.00972,519.12097 296.24963,519.55417 299.28125,519.21875 C 301.71529,518.94945 304.05617,518.08852 305.90625,516.5 C 313.40505,520.58891 319.50305,519.14049 323.125,516.9375 C 326.7852,514.9158 329.06434,512.83135 330.6875,510.3125 C 332.20742,507.95385 333.0939,505.36269 334.25,502.25 C 337.91569,500.07172 340.10586,497.81425 341.125,495.4375 C 342.22633,492.86907 342.16408,490.54958 342.5,488.4375 C 342.53968,488.19956 342.53968,487.95669 342.5,487.71875 C 341.75898,483.60338 340.3348,476.74855 337.8125,470.1875 C 335.2902,463.62645 331.74433,457.19771 325.96875,454.25 C 324.83078,453.64781 322.2206,452.56258 318,451.4375 C 313.7794,450.31242 308.12183,449.24492 301.5625,449.03125 z "
         inkscape:original="M 301.5 451.21875 C 288.77467 450.80422 272.50849 453.71359 256.84375 466.1875 L 267.25 494.46875 L 277.6875 508.15625 C 280.81133 514.18896 299.44397 521.49601 305.46875 513.875 C 313.17705 518.84638 318.52284 517.17743 322 515.0625 C 328.90009 511.25125 329.85979 507.75235 332.4375 500.875 C 340.4282 496.48023 339.60387 492.74565 340.34375 488.09375 C 338.88434 479.98864 334.76561 461.18757 324.96875 456.1875 C 323.43386 455.37527 314.22533 451.63328 301.5 451.21875 z "
         inkscape:radius="2.1847215" />
      <path
         style="fill:#660099;fill-opacity:1;fill-rule:evenodd;stroke:#660099;stroke-width:0.96936709px;stroke-linecap:butt;stroke-linejoin:miter;stroke-opacity:1"
         id="path2174"
         sodipodi:nodetypes="ccccccccc"
         d="M 280.60095,480.13561 C 311.94083,456.7006 345.65369,469.21272 348.72448,470.73867 C 358.52458,475.43554 362.65359,493.09997 364.11348,500.71359 C 363.37336,505.08342 364.20153,508.5753 356.20818,512.70357 C 353.62962,519.16389 352.66386,522.46734 345.76148,526.04747 C 342.28316,528.03413 336.94083,529.58711 329.22998,524.91718 C 323.20319,532.07606 304.57092,525.2207 301.44605,519.5538 L 290.98652,506.70859 L 280.60095,480.13561 z " />
    </g>
    <g
       style="display:inline"
       id="g13013"
       transform="matrix(-1,0,0,1,561.12325,-0.3308393)">
      <path
         transform="matrix(1.0003317,0,0,0.939361,23.658182,42.213182)"
         style="fill:#ffffff;fill-opacity:1;fill-rule:evenodd;stroke:#ffffff;stroke-width:2;stroke-linecap:butt;stroke-linejoin:miter;stroke-miterlimit:4;stroke-dasharray:none;stroke-opacity:1;display:inline"
         id="path13015"
         sodipodi:type="inkscape:offset"
         d="M 301.5625,449.03125 C 288.44416,448.60392 271.58053,451.63886 255.46875,464.46875 C 254.73038,465.05678 254.4531,466.05247 254.78125,466.9375 L 265.1875,495.21875 C 265.26333,495.42065 265.36864,495.6102 265.5,495.78125 L 275.9375,509.46875 L 275.96875,509.4375 C 277.10398,511.43003 278.98608,513.06891 281.34375,514.53125 C 283.82086,516.06767 286.80278,517.37903 289.90625,518.25 C 293.00972,519.12097 296.24963,519.55417 299.28125,519.21875 C 301.71529,518.94945 304.05617,518.08852 305.90625,516.5 C 313.40505,520.58891 319.50305,519.14049 323.125,516.9375 C 326.7852,514.9158 329.06434,512.83135 330.6875,510.3125 C 332.20742,507.95385 333.0939,505.36269 334.25,502.25 C 337.91569,500.07172 340.10586,497.81425 341.125,495.4375 C 342.22633,492.86907 342.16408,490.54958 342.5,488.4375 C 342.53968,488.19956 342.53968,487.95669 342.5,487.71875 C 341.75898,483.60338 340.3348,476.74855 337.8125,470.1875 C 335.2902,463.62645 331.74433,457.19771 325.96875,454.25 C 324.83078,453.64781 322.2206,452.56258 318,451.4375 C 313.7794,450.31242 308.12183,449.24492 301.5625,449.03125 z "
         inkscape:original="M 301.5 451.21875 C 288.77467 450.80422 272.50849 453.71359 256.84375 466.1875 L 267.25 494.46875 L 277.6875 508.15625 C 280.81133 514.18896 299.44397 521.49601 305.46875 513.875 C 313.17705 518.84638 318.52284 517.17743 322 515.0625 C 328.90009 511.25125 329.85979 507.75235 332.4375 500.875 C 340.4282 496.48023 339.60387 492.74565 340.34375 488.09375 C 338.88434 479.98864 334.76561 461.18757 324.96875 456.1875 C 323.43386 455.37527 314.22533 451.63328 301.5 451.21875 z "
         inkscape:radius="2.1847215" />
      <path
         style="fill:#660099;fill-opacity:1;fill-rule:evenodd;stroke:#660099;stroke-width:0.96936709px;stroke-linecap:butt;stroke-linejoin:miter;stroke-opacity:1"
         id="path13017"
         sodipodi:nodetypes="ccccccccc"
         d="M 280.60095,480.13561 C 311.94083,456.7006 345.65369,469.21272 348.72448,470.73867 C 358.52458,475.43554 362.65359,493.09997 364.11348,500.71359 C 363.37336,505.08342 364.20153,508.5753 356.20818,512.70357 C 353.62962,519.16389 352.66386,522.46734 345.76148,526.04747 C 342.28316,528.03413 336.94083,529.58711 329.22998,524.91718 C 323.20319,532.07606 304.57092,525.2207 301.44605,519.5538 L 290.98652,506.70859 L 280.60095,480.13561 z " />
    </g>
    <g
       id="g14050"
       transform="translate(3.2923112,1.2955507)">
      <path
         sodipodi:nodetypes="cc"
         id="path14032"
         d="M 307.12866,482.75605 C 306.73108,497.39824 309.08046,504.17968 311.08356,509.91298"
         style="fill:none;fill-rule:evenodd;stroke:#ffffff;stroke-width:1.5;stroke-linecap:round;stroke-linejoin:miter;stroke-miterlimit:4;stroke-dasharray:none;stroke-opacity:1;display:inline" />
      <path
         id="path14034"
         d="M 298.16424,480.91043 L 299.21888,493.56609"
         style="fill:none;fill-rule:evenodd;stroke:#ffffff;stroke-width:1.5;stroke-linecap:round;stroke-linejoin:miter;stroke-miterlimit:4;stroke-dasharray:none;stroke-opacity:1;display:inline" />
      <path
         sodipodi:nodetypes="cc"
         id="path14036"
         d="M 279.16606,478.99377 C 304.79253,478.4978 325.82133,486.05467 340.76921,517.99025"
         style="fill:none;fill-rule:evenodd;stroke:#ffffff;stroke-width:1.5;stroke-linecap:round;stroke-linejoin:miter;stroke-miterlimit:4;stroke-dasharray:none;stroke-opacity:1;display:inline" />
      <path
         sodipodi:nodetypes="cc"
         id="path14038"
         d="M 324.37938,494.25326 C 335.11754,498.68884 339.79026,500.5713 343.02987,510.64309"
         style="fill:none;fill-rule:evenodd;stroke:#ffffff;stroke-width:1.5;stroke-linecap:round;stroke-linejoin:miter;stroke-miterlimit:4;stroke-dasharray:none;stroke-opacity:1;display:inline" />
      <path
         sodipodi:nodetypes="cc"
         id="path14040"
         d="M 347.58906,503.56258 C 342.67498,493.98848 335.11154,490.96583 316.46706,488.03642"
         style="fill:none;fill-rule:evenodd;stroke:#ffffff;stroke-width:1.5;stroke-linecap:round;stroke-linejoin:miter;stroke-miterlimit:4;stroke-dasharray:none;stroke-opacity:1;display:inline" />
      <path
         sodipodi:nodetypes="cc"
         id="path14042"
         d="M 351.50737,495.94876 C 334.49107,477.80746 318.23681,482.84805 305.72889,482.38476"
         style="fill:none;fill-rule:evenodd;stroke:#ffffff;stroke-width:1.5;stroke-linecap:round;stroke-linejoin:miter;stroke-miterlimit:4;stroke-dasharray:none;stroke-opacity:1;display:inline" />
      <path
         sodipodi:nodetypes="cc"
         id="path14044"
         d="M 296.68623,480.1241 C 317.57799,472.02475 330.47506,470.06983 349.81187,483.5151"
         style="fill:none;fill-rule:evenodd;stroke:#ffffff;stroke-width:1.5;stroke-linecap:round;stroke-linejoin:miter;stroke-miterlimit:4;stroke-dasharray:none;stroke-opacity:1;display:inline" />
      <path
         sodipodi:nodetypes="cc"
         id="path14046"
         d="M 325.84849,495.4117 C 322.05428,503.08043 327.53545,510.70132 333.75827,515.44982"
         style="fill:none;fill-rule:evenodd;stroke:#ffffff;stroke-width:1.5;stroke-linecap:round;stroke-linejoin:miter;stroke-miterlimit:4;stroke-dasharray:none;stroke-opacity:1;display:inline" />
      <path
         sodipodi:nodetypes="cc"
         id="path14048"
         d="M 326.11214,519.40472 C 316.71373,508.50679 315.52028,498.66351 316.88406,488.2929"
         style="fill:none;fill-rule:evenodd;stroke:#ffffff;stroke-width:1.5;stroke-linecap:round;stroke-linejoin:miter;stroke-miterlimit:4;stroke-dasharray:none;stroke-opacity:1;display:inline" />
    </g>
    <g
       id="g14061"
       transform="translate(-1.5535317,-0.1244393)">
      <path
         sodipodi:nodetypes="cc"
         id="path14028"
         d="M 251.79479,484.17604 C 252.19237,498.81823 249.84299,505.59967 247.83989,511.33297"
         style="fill:none;fill-rule:evenodd;stroke:#ffffff;stroke-width:1.5;stroke-linecap:round;stroke-linejoin:miter;stroke-miterlimit:4;stroke-dasharray:none;stroke-opacity:1" />
      <path
         id="path14030"
         d="M 260.75921,482.33042 L 259.70457,494.98608"
         style="fill:none;fill-rule:evenodd;stroke:#ffffff;stroke-width:1.5;stroke-linecap:round;stroke-linejoin:miter;stroke-miterlimit:4;stroke-dasharray:none;stroke-opacity:1" />
      <path
         sodipodi:nodetypes="cc"
         id="path14014"
         d="M 279.75739,480.92393 C 254.13092,480.42796 233.10212,487.98483 218.15424,519.92041"
         style="fill:none;fill-rule:evenodd;stroke:#ffffff;stroke-width:1.5;stroke-linecap:round;stroke-linejoin:miter;stroke-miterlimit:4;stroke-dasharray:none;stroke-opacity:1" />
      <path
         sodipodi:nodetypes="cc"
         id="path14016"
         d="M 234.54407,495.67325 C 223.80591,500.10883 219.13319,501.99129 215.89358,512.06308"
         style="fill:none;fill-rule:evenodd;stroke:#ffffff;stroke-width:1.5;stroke-linecap:round;stroke-linejoin:miter;stroke-miterlimit:4;stroke-dasharray:none;stroke-opacity:1" />
      <path
         sodipodi:nodetypes="cc"
         id="path14018"
         d="M 211.33439,504.98257 C 216.24847,495.40847 223.81191,492.38582 242.45639,489.45641"
         style="fill:none;fill-rule:evenodd;stroke:#ffffff;stroke-width:1.5;stroke-linecap:round;stroke-linejoin:miter;stroke-miterlimit:4;stroke-dasharray:none;stroke-opacity:1" />
      <path
         sodipodi:nodetypes="cc"
         id="path14020"
         d="M 207.41608,497.36875 C 224.43238,479.22745 240.68664,484.26804 253.19456,483.80475"
         style="fill:none;fill-rule:evenodd;stroke:#ffffff;stroke-width:1.5;stroke-linecap:round;stroke-linejoin:miter;stroke-miterlimit:4;stroke-dasharray:none;stroke-opacity:1" />
      <path
         sodipodi:nodetypes="cc"
         id="path14022"
         d="M 262.23722,481.54409 C 241.34546,473.44474 228.44839,471.48982 209.11158,484.93509"
         style="fill:none;fill-rule:evenodd;stroke:#ffffff;stroke-width:1.5;stroke-linecap:round;stroke-linejoin:miter;stroke-miterlimit:4;stroke-dasharray:none;stroke-opacity:1" />
      <path
         sodipodi:nodetypes="cc"
         id="path14024"
         d="M 233.07496,496.83169 C 236.86917,504.50042 231.388,512.12131 225.16518,516.86981"
         style="fill:none;fill-rule:evenodd;stroke:#ffffff;stroke-width:1.5;stroke-linecap:round;stroke-linejoin:miter;stroke-miterlimit:4;stroke-dasharray:none;stroke-opacity:1" />
      <path
         sodipodi:nodetypes="cc"
         id="path14026"
         d="M 232.81131,520.82471 C 242.20972,509.92678 243.40317,500.0835 242.03939,489.71289"
         style="fill:none;fill-rule:evenodd;stroke:#ffffff;stroke-width:1.5;stroke-linecap:round;stroke-linejoin:miter;stroke-miterlimit:4;stroke-dasharray:none;stroke-opacity:1" />
    </g>
    <g
       id="g13009"
       transform="translate(-0.7885392,-2.3622454)">
      <path
         style="fill:#ffffff;fill-opacity:1;fill-rule:evenodd;stroke:#ffffff;stroke-width:2;stroke-linecap:butt;stroke-linejoin:miter;stroke-miterlimit:4;stroke-dasharray:none;stroke-opacity:1;display:inline"
         inkscape:original="M 280.65625 493.25 C 270.06334 497.2126 261.75424 501.89721 257.5625 508.1875 C 252.27231 514.63289 250.16829 521.86007 247.03125 528.84375 C 244.55977 543.14351 249.02053 541.80864 250.75 546.65625 C 251.37112 552.6864 253.50728 556.44913 256.46875 558.96875 C 260.19997 561.71639 263.87774 564.09361 267.03125 563.375 C 271.94117 568.22724 276.84008 569.88689 281.75 571.28125 C 289.59233 568.64308 291.99292 566.01319 294.71875 563.375 C 299.32926 562.66939 303.58889 561.42659 307.03125 558.96875 C 311.30383 553.0648 311.57609 549.6665 311.21875 546.65625 C 317.55612 539.99301 316.72059 534.35139 314.96875 528.84375 C 314.96875 528.84375 313.4178 519.67453 304.84375 508.1875 C 296.26971 496.70048 280.65625 493.25002 280.65625 493.25 z "
         sodipodi:type="inkscape:offset"
         d="M 280.6875,490.96875 C 280.40938,490.97064 280.13398,491.02361 279.875,491.125 C 269.1891,495.12239 260.54378,499.86937 255.84375,506.78125 L 255.8125,506.75 C 255.76292,506.8104 255.73654,506.877 255.6875,506.9375 C 250.16624,513.74897 247.99448,521.17038 244.96875,527.90625 C 244.88194,528.08475 244.8189,528.27386 244.78125,528.46875 C 243.50848,535.83288 243.96734,539.66562 245.28125,542.3125 C 245.93821,543.63594 246.73117,544.52193 247.3125,545.25 C 247.87779,545.95798 248.28079,546.49653 248.59375,547.34375 C 249.33173,553.53522 251.68803,557.86967 255,560.6875 C 255.04003,560.73077 255.08173,560.77247 255.125,560.8125 C 257.02568,562.21214 258.97033,563.5644 261,564.53125 C 262.61625,565.30116 264.35727,565.66469 266.15625,565.59375 C 271.19659,570.27824 276.36609,572.11728 281.125,573.46875 C 281.56581,573.59415 282.03425,573.58326 282.46875,573.4375 C 290.16046,570.85 293.21476,567.95648 295.78125,565.46875 C 300.3154,564.71431 304.67277,563.43358 308.34375,560.8125 C 308.54662,560.67555 308.72602,560.50671 308.875,560.3125 C 312.91204,554.73403 313.66475,550.66811 313.5,547.46875 C 316.45984,544.12144 317.97811,540.78769 318.375,537.59375 C 318.78661,534.28136 318.08751,531.25437 317.21875,528.46875 C 317.21875,528.46875 317.12711,528.16784 317.125,528.15625 C 317.04063,527.69376 315.2821,518.40018 306.65625,506.84375 C 297.42212,494.47238 281.15625,491.03125 281.15625,491.03125 C 281.0026,490.99416 280.8455,490.97321 280.6875,490.96875 L 280.6875,490.96875 z "
         transform="matrix(1.0003317,0,0,0.939361,-0.1808605,21.092898)"
         id="path5095"
         inkscape:radius="2.2709045" />
      <path
         style="fill:#660099;fill-opacity:1;fill-rule:evenodd;stroke:#660099;stroke-width:0.96936709px;stroke-linecap:butt;stroke-linejoin:miter;stroke-opacity:1;display:inline"
         id="path3149"
         sodipodi:nodetypes="csccccccccccc"
         d="M 280.58509,484.42337 C 280.58509,484.42337 296.19943,487.67599 304.77632,498.46645 C 313.3532,509.2569 314.89264,517.87894 314.89264,517.87894 C 316.64506,523.0526 317.49346,528.34754 311.15399,534.60673 C 311.51146,537.43444 311.24951,540.62568 306.97552,546.17162 C 303.53202,548.48043 299.27202,549.63911 294.65998,550.30194 C 291.93325,552.78013 289.52963,555.25831 281.6847,557.73651 C 276.77315,556.42667 271.86159,554.85994 266.95004,550.30194 C 263.79549,550.97695 260.12634,548.75265 256.39388,546.17162 C 253.43142,543.8048 251.29728,540.27121 250.67596,534.60673 C 248.94591,530.05307 244.46502,531.31158 246.93732,517.87894 C 250.0754,511.31875 252.20153,504.52099 257.49348,498.46645 C 261.68661,492.55758 269.98867,488.14568 280.58509,484.42337 z " />
    </g>
    <g
       id="g14072"
       transform="translate(0,-2.3622454)">
      <path
         id="path13019"
         d="M 280.01993,489.59707 L 280.44832,552.38174"
         style="fill:none;fill-rule:evenodd;stroke:#ffffff;stroke-width:1.53441763;stroke-linecap:round;stroke-linejoin:miter;stroke-miterlimit:4;stroke-dasharray:none;stroke-opacity:1" />
      <path
         sodipodi:nodetypes="cc"
         id="path13990"
         d="M 280.1187,528.31748 C 275.20058,530.25992 273.05515,541.1743 274.76476,549.09082"
         style="fill:none;fill-rule:evenodd;stroke:#ffffff;stroke-width:1.5;stroke-linecap:round;stroke-linejoin:miter;stroke-miterlimit:4;stroke-dasharray:none;stroke-opacity:1" />
      <path
         sodipodi:nodetypes="cc"
         id="path13992"
         d="M 280.1187,517.82374 C 271.50638,520.027 266.03235,528.87438 266.62675,543.09439"
         style="fill:none;fill-rule:evenodd;stroke:#ffffff;stroke-width:1.5;stroke-linecap:round;stroke-linejoin:miter;stroke-miterlimit:4;stroke-dasharray:none;stroke-opacity:1" />
      <path
         sodipodi:nodetypes="cc"
         id="path13994"
         d="M 280.1187,507.11584 C 266.07323,512.29757 258.50328,523.3932 259.77369,537.31212"
         style="fill:none;fill-rule:evenodd;stroke:#ffffff;stroke-width:1.5;stroke-linecap:round;stroke-linejoin:miter;stroke-miterlimit:4;stroke-dasharray:none;stroke-opacity:1" />
      <path
         sodipodi:nodetypes="cc"
         id="path13996"
         d="M 279.69039,498.97783 C 269.62997,500.77486 254.64552,510.99688 253.99142,525.10511"
         style="fill:none;fill-rule:evenodd;stroke:#ffffff;stroke-width:1.5;stroke-linecap:round;stroke-linejoin:miter;stroke-miterlimit:4;stroke-dasharray:none;stroke-opacity:1" />
      <path
         sodipodi:nodetypes="cc"
         id="path14006"
         d="M 279.90455,528.53164 C 284.82267,530.47408 286.9681,541.38846 285.25849,549.30498"
         style="fill:none;fill-rule:evenodd;stroke:#ffffff;stroke-width:1.5;stroke-linecap:round;stroke-linejoin:miter;stroke-miterlimit:4;stroke-dasharray:none;stroke-opacity:1;display:inline" />
      <path
         sodipodi:nodetypes="cc"
         id="path14008"
         d="M 280.33287,518.25207 C 288.94519,520.45533 293.9909,530.80182 293.3965,545.02183"
         style="fill:none;fill-rule:evenodd;stroke:#ffffff;stroke-width:1.5;stroke-linecap:round;stroke-linejoin:miter;stroke-miterlimit:4;stroke-dasharray:none;stroke-opacity:1;display:inline" />
      <path
         sodipodi:nodetypes="cc"
         id="path14010"
         d="M 279.90455,507.75832 C 293.95002,512.94005 301.51997,524.03568 300.24956,537.9546"
         style="fill:none;fill-rule:evenodd;stroke:#ffffff;stroke-width:1.5;stroke-linecap:round;stroke-linejoin:miter;stroke-miterlimit:4;stroke-dasharray:none;stroke-opacity:1;display:inline" />
      <path
         sodipodi:nodetypes="cc"
         id="path14012"
         d="M 280.33286,499.19199 C 290.39328,500.98902 305.37773,511.21104 306.03183,525.31927"
         style="fill:none;fill-rule:evenodd;stroke:#ffffff;stroke-width:1.5;stroke-linecap:round;stroke-linejoin:miter;stroke-miterlimit:4;stroke-dasharray:none;stroke-opacity:1;display:inline" />
    </g>
  </g>
  <g
     inkscape:groupmode="layer"
     id="layer4"
     inkscape:label="桐花"
     style="display:inline">
    <path
       sodipodi:type="inkscape:offset"
       inkscape:radius="1.6129068"
       inkscape:original="M 280.6875 353.90625 C 277.95937 354.41944 277.19529 356.26701 275.96875 357.78125 C 274.1047 358.60752 272.00265 358.52577 270.625 360.125 C 269.804 363.42228 270.18858 365.86576 271.40625 368.40625 C 273.49283 372.7596 276.47408 373.69917 278.71875 376.34375 L 278.5625 388.4375 C 276.83514 387.23099 276.45178 385.43805 275.75 383.71875 C 276.85053 382.08069 274.3291 370.85774 269.5625 370.21875 C 265.66362 369.98535 263.97189 371.68953 263.5625 373.21875 C 261.24744 372.59904 260.75768 371.41412 256.0625 374.25 C 256.05173 376.57248 254.87978 377.98018 257.375 380.6875 C 255.17671 382.25799 256.50456 383.61702 256.46875 385.1875 C 258.18712 390.30498 257.80797 391.16062 266.9375 390.5 C 272.8359 390.34333 275.83119 391.18936 276.84375 392.21875 C 277.68248 393.5216 278.19324 394.14717 278.75 396.53125 L 278.75 411.96875 L 282.84375 412.15625 C 282.75196 405.64578 282.30584 396.9375 283.4375 392.625 C 284.3589 391.76853 285.26609 391.26198 286.1875 390.9375 C 288.27908 390.46294 290.40721 390.40514 292.6875 390.71875 C 296.99812 389.67644 302.47565 392.7784 305.53125 386.03125 C 305.7704 384.31799 304.51104 382.6195 303.78125 380.90625 C 306.11481 380.61336 305.85619 376.83777 305.25 374.25 C 303.25119 371.97446 301.24881 373.16615 299.25 372.78125 C 297.45124 372.99024 296.70043 370.56257 293.96875 369.75 C 285.07173 372.28931 287.26552 380.51096 285.8125 386.03125 L 283.25 388.625 L 283.25 376.625 C 285.64089 372.74189 295.96138 369.05757 290.125 359.5 C 288.98282 358.6528 287.82967 358.55564 286.6875 358.1875 C 284.77105 356.51271 283.09153 354.11829 280.6875 353.90625 z "
       style="fill:#ffffff;fill-opacity:1;fill-rule:evenodd;stroke:none;stroke-width:2;stroke-linecap:butt;stroke-linejoin:miter;stroke-miterlimit:4;stroke-dasharray:none;stroke-opacity:1;display:inline"
       id="path4170"
       d="M 280.65625,352.28125 C 280.56177,352.28341 280.46765,352.29386 280.375,352.3125 C 278.69222,352.62905 277.44588,353.45436 276.59375,354.34375 C 275.8715,355.09758 275.44354,355.80733 275,356.40625 C 274.33294,356.65918 273.58045,356.84423 272.65625,357.125 C 271.60905,357.44313 270.3687,357.94525 269.40625,359.0625 C 269.23794,359.26062 269.12001,359.49648 269.0625,359.75 C 268.21628,363.14857 268.61057,365.96901 269.78125,368.625 C 269.74002,368.61292 269.69832,368.6025 269.65625,368.59375 C 266.27927,368.39159 263.96539,369.62512 262.78125,371.25 C 262.21191,371.04132 261.60178,370.82888 260.75,370.8125 C 259.28032,370.78423 257.67268,371.39283 255.21875,372.875 C 254.73611,373.16548 254.43997,373.68669 254.4375,374.25 C 254.43337,375.14146 254.13255,376.02074 254.15625,377.34375 C 254.17388,378.32774 254.65583,379.451 255.40625,380.59375 C 254.8271,381.42703 254.4465,382.31902 254.5,383.0625 C 254.58104,384.18868 254.85106,384.83583 254.84375,385.15625 C 254.84496,385.33734 254.87665,385.51693 254.9375,385.6875 C 255.35708,386.93705 255.64516,387.96144 256.0625,388.90625 C 256.47984,389.85106 257.12198,390.78092 258.09375,391.375 C 260.02075,392.55305 262.43182,392.42124 266.96875,392.09375 L 266.96875,392.125 C 269.83367,392.0489 271.9632,392.21313 273.40625,392.5 C 274.83191,392.78342 275.53873,393.23128 275.65625,393.34375 C 276.34613,394.39179 276.68252,394.90202 277.125,396.71875 L 277.125,411.96875 C 277.11809,412.84487 277.81178,413.56631 278.6875,413.59375 L 282.78125,413.78125 C 283.22941,413.80213 283.66602,413.63541 283.98621,413.32115 C 284.3064,413.00689 284.48125,412.57347 284.46875,412.125 C 284.37959,405.80097 284.09297,397.47621 284.9375,393.5625 C 285.53266,393.08427 286.09503,392.67965 286.6875,392.46875 C 286.69763,392.46656 286.70862,392.47092 286.71875,392.46875 C 288.54756,392.07779 290.41865,392.03055 292.46875,392.3125 C 292.66689,392.33896 292.86823,392.32837 293.0625,392.28125 C 294.71084,391.88268 297.0912,392.35239 299.71875,392.125 C 302.3463,391.89761 305.28446,390.47562 307,386.6875 C 307.06213,386.54831 307.10421,386.40101 307.125,386.25 C 307.40348,384.25497 306.57713,382.77951 305.875,381.5 C 306.05134,381.33225 306.27734,381.1907 306.40625,381 C 306.91395,380.24893 307.12433,379.43894 307.21875,378.625 C 307.40759,376.99712 307.14371,375.28889 306.8125,373.875 C 306.75499,373.62148 306.63706,373.38562 306.46875,373.1875 C 305.20098,371.74421 303.56638,371.23091 302.3125,371.1875 C 301.05862,371.14409 300.1602,371.3026 299.5625,371.1875 C 299.39685,371.16151 299.22815,371.16151 299.0625,371.1875 C 298.98117,371.19695 299.00181,371.21607 298.84375,371.125 C 298.68569,371.03393 298.40181,370.77285 298.03125,370.4375 C 297.29012,369.76679 296.18537,368.73868 294.4375,368.21875 C 294.14462,368.12189 293.83011,368.11105 293.53125,368.1875 C 293.19764,368.28272 292.96566,368.44963 292.65625,368.5625 C 293.03804,367.72069 293.36401,366.83907 293.46875,365.84375 C 293.69502,363.69351 293.09331,361.26543 291.5,358.65625 C 291.39299,358.48641 291.25521,358.33803 291.09375,358.21875 C 289.73296,357.2094 288.45356,356.99788 287.53125,356.75 C 286.743,356.02989 285.92565,355.14023 284.9375,354.28125 C 283.86401,353.34808 282.54232,352.46232 280.84375,352.3125 C 280.78192,352.29841 280.71931,352.28797 280.65625,352.28125 z M 276.46875,376.46875 C 276.65851,376.64424 276.91822,376.81515 277.09375,377 L 277.0625,378.875 C 276.88844,378.0726 276.74762,377.30942 276.46875,376.46875 z M 285.5,376.59375 C 285.15549,378.0771 285.00139,379.53231 284.875,380.9375 L 284.875,377.21875 C 284.99516,377.05408 285.31948,376.7887 285.5,376.59375 z "
       transform="matrix(1,0,0,0.9616419,0,16.543272)" />
    <path
       style="fill:#660099;fill-opacity:1;fill-rule:evenodd;stroke:none;stroke-width:2;stroke-linecap:butt;stroke-linejoin:miter;stroke-miterlimit:4;stroke-dasharray:none;stroke-opacity:1"
       d="M 278.83376,412.76822 L 278.83376,397.9403 C 278.277,395.64766 277.75941,395.04673 276.92068,393.79386 C 275.90812,392.80395 272.91044,391.99565 267.01204,392.1463 C 257.88252,392.78157 258.25101,391.96028 256.53264,387.0391 C 256.56846,385.52885 255.24835,384.21075 257.44664,382.7005 C 254.95143,380.09701 256.12224,378.75559 256.13301,376.5222 C 260.8282,373.79508 261.32782,374.91033 263.64288,375.50627 C 264.05227,374.03572 265.74042,372.39862 269.6393,372.62305 C 274.40591,373.23754 276.93608,384.03607 275.83555,385.6113 C 276.53731,387.26465 276.90658,388.98181 278.63394,390.14203 L 278.80507,378.52647 C 276.56041,375.98333 273.55457,375.09215 271.46799,370.90578 C 270.25031,368.46273 269.87475,366.10075 270.69575,362.92994 C 272.07341,361.39204 274.18566,361.45914 276.04971,360.66456 C 277.27625,359.2084 278.03305,357.45109 280.76118,356.95758 C 283.16522,357.1615 284.84116,359.4659 286.75761,361.07646 C 287.89979,361.43048 289.04196,361.4974 290.18414,362.31211 C 296.02052,371.50305 285.72197,375.05341 283.33108,378.78758 L 283.33108,390.32041 L 285.90097,387.84908 C 287.35398,382.54053 285.14196,374.6393 294.03898,372.19739 C 296.77065,372.97879 297.52246,375.30916 299.32122,375.10819 C 301.32003,375.47833 303.31884,374.32016 305.31765,376.50841 C 305.92384,378.99691 306.19512,382.62479 303.86156,382.90644 C 304.59136,384.55398 305.84266,386.20154 305.60351,387.84908 C 302.54791,394.33741 297.06465,391.34991 292.75403,392.35225 C 290.47373,392.05067 288.35798,392.09947 286.2664,392.55583 C 285.345,392.86786 284.42361,393.36834 283.50221,394.19196 C 282.37056,398.33902 282.81097,406.71343 282.90276,412.97417 L 278.83376,412.76822 z "
       id="path3182"
       sodipodi:nodetypes="ccccccccccccscccccccccccccccccc" />
    <path
       sodipodi:type="inkscape:offset"
       inkscape:radius="1.5633624"
       inkscape:original="M 227.5 371.46875 C 224.77187 371.98194 222.88918 373.42539 222.78125 375.3125 C 220.9172 376.13877 218.81516 376.08827 217.4375 377.6875 C 216.11625 380.48453 216.50701 382.9342 218.21875 385.96875 C 220.59057 390.1735 223.31784 391.26167 225.5625 393.90625 L 225.375 405.96875 C 223.64764 404.76224 223.2955 403.00055 222.59375 401.28125 C 223.69428 399.64319 221.14161 388.38899 216.375 387.75 C 212.47612 387.5166 209.66578 388.47504 210.375 390.75 C 208.05994 390.13029 207.57019 388.97662 202.875 391.8125 C 201.74562 394.13498 200.57368 396.66129 204.1875 398.25 C 201.98921 399.82049 203.31707 401.17952 203.28125 402.75 C 204.99962 407.86748 204.62048 408.72312 213.75 408.0625 C 219.6484 407.90583 222.64369 408.75186 223.65625 409.78125 C 224.49498 411.0841 225.00575 411.70967 225.5625 414.09375 L 225.5625 429.5 L 229.65625 429.71875 C 229.56446 423.20828 229.11835 414.5 230.25 410.1875 C 231.1714 409.33103 232.0786 408.82448 233 408.5 C 235.09158 408.02544 237.2197 407.96764 239.5 408.28125 C 243.81062 407.23894 249.28815 410.3409 252.34375 403.59375 C 252.5829 401.88049 252.44642 400.92774 251.34375 398.46875 C 255.16879 395.93864 252.66868 394.40027 252.0625 391.8125 C 250.06369 389.53696 248.0613 390.72865 246.0625 390.34375 C 244.26374 390.55274 244.26293 387.75007 241.53125 386.9375 C 231.88849 389.10394 232.61352 398.44633 231.90625 403.59375 L 230.0625 406.15625 L 230.0625 394.15625 C 232.45339 390.27314 243.25164 383.50094 236.9375 377.03125 C 235.79532 376.18405 234.64218 376.11814 233.5 375.75 C 231.58355 374.44808 230.64978 370.56218 227.5 371.46875 z "
       style="fill:#ffffff;fill-opacity:1;fill-rule:evenodd;stroke:none;stroke-width:2;stroke-linecap:butt;stroke-linejoin:miter;stroke-miterlimit:4;stroke-dasharray:none;stroke-opacity:1;display:inline"
       id="path4166"
       d="M 228.6875,369.78125 C 228.21397,369.74932 227.71263,369.81351 227.21875,369.9375 C 227.16424,369.94775 227.11657,369.95785 227.0625,369.96875 C 225.56763,370.27019 224.23547,370.81692 223.1875,371.65625 C 222.41555,372.27452 221.88805,373.12587 221.5625,374.0625 C 220.93436,374.27683 220.28145,374.46503 219.46875,374.71875 C 218.42543,375.04446 217.20076,375.55258 216.25,376.65625 C 216.16,376.77047 216.08637,376.89669 216.03125,377.03125 C 214.59536,380.07096 215.00416,383.11647 216.59375,386.1875 C 216.5521,386.18583 216.5104,386.18583 216.46875,386.1875 C 214.36953,386.06183 212.51238,386.19549 211,386.875 C 210.24381,387.21475 209.53377,387.73579 209.09375,388.53125 C 209.06677,388.58003 209.0553,388.63719 209.03125,388.6875 C 208.58886,388.55755 208.13189,388.44435 207.53125,388.4375 C 206.0783,388.42092 204.51099,388.98987 202.0625,390.46875 C 201.80551,390.62575 201.59934,390.85363 201.46875,391.125 C 200.89957,392.29547 200.16126,393.67064 200.1875,395.34375 C 200.20548,396.49051 200.95358,397.57031 202,398.5 C 201.58034,399.22926 201.3292,399.98851 201.375,400.625 C 201.45517,401.73908 201.72638,402.38406 201.71875,402.71875 C 201.71898,402.89993 201.75071,403.07969 201.8125,403.25 C 202.23239,404.50046 202.52227,405.52871 202.9375,406.46875 C 203.35273,407.40879 203.94496,408.31858 204.90625,408.90625 C 206.81247,410.07159 209.24589,409.95229 213.78125,409.625 C 213.82287,409.62389 213.83369,409.626 213.875,409.625 C 216.67962,409.55705 218.79151,409.71627 220.21875,410 C 221.64341,410.28322 222.36565,410.71687 222.5,410.84375 C 223.22037,411.94016 223.5343,412.39086 224,414.34375 L 224,429.5 C 223.99902,430.32742 224.64285,431.01235 225.46875,431.0625 L 229.5625,431.28125 C 229.9983,431.30724 230.42511,431.14984 230.73969,430.84713 C 231.05427,430.54442 231.22797,430.12397 231.21875,429.6875 C 231.12961,423.36505 230.83876,415.05537 231.6875,411.125 C 232.28658,410.63583 232.87587,410.24737 233.46875,410.03125 C 235.32456,409.62606 237.20212,409.55781 239.28125,409.84375 C 239.47934,409.87141 239.6809,409.8608 239.875,409.8125 C 241.53891,409.41017 243.91406,409.85149 246.53125,409.625 C 249.14844,409.39851 252.07148,408.02539 253.78125,404.25 C 253.84403,404.11104 253.88614,403.96365 253.90625,403.8125 C 254.12572,402.24024 253.85089,400.77822 253.125,398.875 C 253.63493,398.42529 254.2441,397.99653 254.53125,397.46875 C 255.00345,396.60084 255.07458,395.61811 254.90625,394.84375 C 254.56959,393.29503 253.80368,392.36492 253.59375,391.46875 C 253.53816,391.21455 253.42001,390.97824 253.25,390.78125 C 251.99047,389.34734 250.3711,388.85564 249.125,388.8125 C 247.8789,388.76936 246.95378,388.92997 246.34375,388.8125 C 246.21028,388.78441 246.0737,388.7739 245.9375,388.78125 C 245.8627,388.71169 245.68164,388.47104 245.40625,388.09375 C 244.82765,387.30107 243.80536,385.98382 241.96875,385.4375 C 241.71518,385.36109 241.44636,385.35033 241.1875,385.40625 C 240.27754,385.61069 239.5472,385.95421 238.78125,386.28125 C 239.59359,384.98345 240.24998,383.61334 240.40625,382.0625 C 240.61144,380.0262 239.89183,377.81189 238.0625,375.9375 C 238.00417,375.88061 237.94148,375.82837 237.875,375.78125 C 236.48549,374.7506 235.16031,374.58871 234.25,374.34375 C 233.78731,373.9672 233.12086,372.91745 232.15625,371.78125 C 231.6483,371.18294 231.03069,370.5575 230.15625,370.15625 C 229.71903,369.95563 229.21195,369.81661 228.6875,369.78125 z M 223.21875,393.84375 C 223.46921,394.07683 223.77012,394.31558 224,394.5625 L 223.9375,396.90625 C 223.74075,395.90668 223.58449,394.91119 223.21875,393.84375 z M 231.65625,394.6875 C 231.63874,394.7507 231.64185,394.81179 231.625,394.875 L 231.625,394.71875 C 231.63061,394.71062 231.6505,394.69572 231.65625,394.6875 z "
       transform="matrix(1,0,0,0.9616419,0,16.543272)" />
    <path
       sodipodi:type="inkscape:offset"
       inkscape:radius="1.9894844"
       inkscape:original="M 334.96875 371.28125 C 330.62179 371.67003 329.06594 373.78767 328.03125 375.15625 C 327.36031 376.97179 324.29142 377.58279 323.40625 379.375 C 322.58525 382.67228 323.71983 382.897 324.9375 385.4375 C 327.02408 389.79085 330.03659 390.69916 332.28125 393.34375 L 332.09375 405.4375 C 330.36639 404.23099 330.01425 402.43807 329.3125 400.71875 C 330.41303 399.08069 327.89161 387.85773 323.125 387.21875 C 319.22612 386.98535 317.5344 388.68955 317.125 390.21875 C 314.80994 389.59904 314.28893 388.44536 309.59375 391.28125 C 309.57362 393.62245 307.49791 396.8064 310.90625 397.6875 C 308.70796 399.25799 310.03582 400.61701 310 402.1875 C 311.71837 407.30498 311.33923 408.16062 320.46875 407.5 C 326.36715 407.34333 329.39369 408.18935 330.40625 409.21875 C 331.24498 410.5216 331.75574 411.14716 332.3125 413.53125 L 332.3125 428.96875 L 336.375 429.1875 C 336.28321 422.67703 335.83709 413.96874 336.96875 409.65625 C 337.89015 408.79978 338.82859 408.26197 339.75 407.9375 C 341.84158 407.46294 343.93846 407.78014 346.21875 408.09375 C 349.78363 408.54292 353.39467 409.0433 358.6875 404.90625 C 358.92665 403.19299 358.79231 399.61953 358.0625 397.90625 C 360.39606 397.61336 360.50605 394.5835 358.78125 391.25 C 356.78244 388.97446 354.78006 390.16617 352.78125 389.78125 C 350.98249 389.99024 351.35027 388.33955 347.5 386.78125 C 338.60298 389.32056 339.70941 399.00243 339.375 403.03125 L 336.8125 405.625 L 336.8125 393.625 C 339.20339 389.74189 349.49264 386.05756 343.65625 376.5 C 342.51407 375.6528 341.36092 375.58691 340.21875 375.21875 C 337.84586 373.39931 337.40449 371.10457 334.96875 371.28125 z "
       style="fill:#ffffff;fill-opacity:1;fill-rule:evenodd;stroke:none;stroke-width:2;stroke-linecap:butt;stroke-linejoin:miter;stroke-miterlimit:4;stroke-dasharray:none;stroke-opacity:1;display:inline"
       id="path4178"
       d="M 334.78125,369.3125 C 329.83779,369.75463 327.4554,372.62238 326.4375,373.96875 C 326.32009,374.12096 326.22535,374.28937 326.15625,374.46875 C 326.13751,374.51946 325.69521,375.00041 324.75,375.59375 C 323.80479,376.18709 322.43209,376.86589 321.625,378.5 C 321.55822,378.6293 321.50582,378.76553 321.46875,378.90625 C 321.00377,380.77368 321.06457,382.29441 321.5625,383.46875 C 321.87868,384.21445 322.2252,384.73547 322.5625,385.28125 C 319.63829,385.28499 317.43814,386.32446 316.21875,387.8125 C 315.68696,387.63667 315.07127,387.4777 314.28125,387.46875 C 312.7012,387.45086 311.04016,388.09724 308.5625,389.59375 C 307.97713,389.94338 307.61155,390.5684 307.59375,391.25 C 307.58867,391.84046 307.10026,393.22246 306.96875,394.875 C 306.90299,395.70127 306.96614,396.72501 307.5625,397.6875 C 307.69248,397.89727 307.92312,398.03869 308.09375,398.21875 C 307.81599,398.86629 307.61692,399.54722 307.65625,400.09375 C 307.74391,401.31187 308.00483,401.94435 308,402.15625 C 308.00438,402.38048 308.04665,402.60236 308.125,402.8125 C 308.54224,404.05508 308.81665,405.08143 309.25,406.0625 C 309.68335,407.04357 310.35483,408.07598 311.40625,408.71875 C 313.49141,409.99349 315.98154,409.7978 320.53125,409.46875 L 320.53125,409.5 C 323.3764,409.42443 325.46241,409.59554 326.875,409.875 C 328.22566,410.14221 328.84626,410.55373 328.90625,410.59375 C 329.56089,411.58235 329.89162,412.05103 330.3125,413.78125 L 330.3125,428.96875 C 330.306,430.03984 331.14858,430.92385 332.21875,430.96875 L 336.28125,431.1875 C 336.83403,431.21659 337.37395,431.01408 337.77125,430.62864 C 338.16856,430.24319 338.38733,429.70966 338.375,429.15625 C 338.28575,422.82573 338.03388,414.57319 338.84375,410.78125 C 339.33959,410.40558 339.84301,410.04954 340.3125,409.875 C 341.90904,409.54291 343.6954,409.75414 345.9375,410.0625 C 345.94792,410.06258 345.95833,410.06258 345.96875,410.0625 C 349.51714,410.50959 354.20618,410.92411 359.90625,406.46875 C 360.31219,406.15443 360.58092,405.69535 360.65625,405.1875 C 360.89405,403.48393 360.80829,401.14468 360.3125,398.96875 C 360.52364,398.80418 360.76966,398.67205 360.9375,398.46875 C 361.57205,397.70015 361.86068,396.77283 361.9375,395.875 C 362.09114,394.07933 361.54589,392.24433 360.5625,390.34375 C 360.48599,390.19717 360.39152,390.0607 360.28125,389.9375 C 358.95082,388.42287 357.15684,387.85796 355.84375,387.8125 C 354.53066,387.76704 353.66015,387.90954 353.15625,387.8125 C 352.97996,387.78875 352.80129,387.78875 352.625,387.8125 C 352.62171,387.8029 352.54687,387.75141 352.28125,387.5 C 351.64902,386.90158 350.42201,385.81656 348.25,384.9375 C 347.84153,384.77579 347.39102,384.75381 346.96875,384.875 C 346.88642,384.8985 346.83101,384.94402 346.75,384.96875 C 346.99516,384.29129 347.29555,383.64223 347.375,382.875 C 347.60726,380.63215 346.96799,378.12857 345.34375,375.46875 C 345.21438,375.25115 345.04468,375.06023 344.84375,374.90625 C 343.41991,373.85013 342.12993,373.62527 341.25,373.40625 C 340.46286,372.74395 339.88013,372.01736 339.09375,371.15625 C 338.23477,370.21564 336.65889,369.17857 334.8125,369.3125 C 334.80208,369.31242 334.79167,369.31242 334.78125,369.3125 z "
       transform="matrix(1,0,0,0.9616419,0,16.543272)" />
    <path
       style="fill:#660099;fill-opacity:1;fill-rule:evenodd;stroke:none;stroke-width:2;stroke-linecap:butt;stroke-linejoin:miter;stroke-miterlimit:4;stroke-dasharray:none;stroke-opacity:1;display:inline"
       d="M 332.3596,429.06836 L 332.3596,414.24045 C 331.80284,411.94781 331.28525,411.34688 330.44652,410.09401 C 329.43396,409.1041 326.43628,408.29578 320.53788,408.44645 C 311.40836,409.08172 311.77685,408.26043 310.05848,403.33924 C 310.0943,401.829 308.77419,400.5109 310.97248,399.00064 C 307.56415,398.15334 309.63872,395.07374 309.65885,392.82234 C 314.35404,390.09523 314.85366,391.21048 317.16872,391.80642 C 317.57811,390.33587 319.26626,388.69875 323.16514,388.9232 C 327.93175,389.53768 330.46192,400.33621 329.36139,401.91144 C 330.06315,403.5648 330.43242,405.28195 332.15978,406.44218 L 332.33091,394.82662 C 330.08625,392.28348 327.08041,391.39228 324.99383,387.20593 C 323.77615,384.76287 322.65485,384.55229 323.47585,381.38149 C 324.36101,379.65802 327.41313,379.06918 328.08407,377.32327 C 329.11875,376.00718 330.6858,373.99017 335.03276,373.6163 C 337.4685,373.4464 337.91056,375.62695 340.28345,377.37659 C 341.42563,377.73063 342.5678,377.79755 343.70998,378.61225 C 349.54636,387.80319 339.24781,391.35356 336.85692,395.08773 L 336.85692,406.62055 L 339.42681,404.14923 C 339.76121,400.27494 338.6678,390.93945 347.56482,388.49754 C 351.4151,389.99607 351.0483,391.6093 352.84706,391.40832 C 354.84587,391.77848 356.84468,390.62031 358.84349,392.80855 C 360.56829,396.01419 360.4667,398.92493 358.13314,399.20659 C 358.86294,400.85413 358.99563,404.29452 358.75648,405.94207 C 353.46365,409.92042 349.84475,409.4429 346.27987,409.01096 C 343.99957,408.70939 341.88382,408.39962 339.79224,408.85598 C 338.87084,409.16801 337.94945,409.66849 337.02805,410.4921 C 335.8964,414.63917 336.33681,423.01357 336.4286,429.27432 L 332.3596,429.06836 z "
       id="path4156"
       sodipodi:nodetypes="ccccccccccccscccccccccccccccccc" />
    <path
       sodipodi:type="inkscape:offset"
       inkscape:radius="1.5633624"
       inkscape:original="M 300.25 391.78125 C 299.00569 391.97593 298.03773 392.6299 297.3125 393.21875 C 294.57837 391.56827 292.48919 391.82189 290.5 392.40625 C 286.61434 396.37773 286.41455 402.1972 286.15625 408.40625 L 280.75 413.96875 L 275.75 409.78125 C 274.7662 404.21484 276.58722 398.66017 271.59375 393.09375 C 268.9006 390.90272 266.77177 393.28673 264.75 393.78125 C 263.03173 392.94825 262.29489 391.16264 258.5 392.40625 C 255.93577 393.88026 254.52831 396.27227 255.71875 400.75 C 252.4805 402.62744 254.30771 408.00585 255.71875 410.5 C 263.58205 413.21011 266.68513 411.99323 271.3125 411.75 L 280.75 414.65625 L 296.34375 413.28125 C 300.19244 412.04346 304.05757 412.93125 307.90625 409.53125 C 308.85181 408.33166 308.35694 405.15435 307.0625 402.5625 C 307.67262 397.58918 306.6681 395.06745 304.84375 393.09375 C 303.02304 391.8568 301.49431 391.58657 300.25 391.78125 z "
       style="fill:#ffffff;fill-opacity:1;fill-rule:evenodd;stroke:none;stroke-width:1px;stroke-linecap:butt;stroke-linejoin:miter;stroke-opacity:1;display:inline"
       id="path4174"
       d="M 300,390.25 C 298.80299,390.43728 297.90892,390.92569 297.15625,391.4375 C 294.44675,390.15337 291.98951,390.34016 290.0625,390.90625 C 289.80203,390.97987 289.56514,391.11986 289.375,391.3125 C 285.12183,395.65961 284.8708,401.71879 284.625,407.71875 L 280.625,411.84375 L 277.25,409 C 276.89953,406.59793 277.01113,404.06603 276.71875,401.28125 C 276.40744,398.31615 275.48242,395.10844 272.75,392.0625 C 272.70288,391.99602 272.65064,391.93333 272.59375,391.875 C 270.87543,390.47705 268.81461,390.45539 267.40625,390.9375 C 266.23058,391.33996 265.48228,391.78026 264.875,392.03125 C 264.4079,391.70543 263.99135,391.29518 263.0625,390.875 C 261.84887,390.32599 260.13631,390.20617 258,390.90625 C 257.90113,390.94852 257.80688,391.00088 257.71875,391.0625 C 256.227,391.92001 254.92447,393.14633 254.25,394.875 C 253.67467,396.34958 253.67326,398.15534 254.0625,400.15625 C 253.42637,400.76533 252.90684,401.44679 252.65625,402.21875 C 252.297,403.32547 252.30468,404.49402 252.4375,405.59375 C 252.70315,407.7932 253.54349,409.86672 254.34375,411.28125 C 254.54124,411.60997 254.85264,411.85464 255.21875,411.96875 C 263.16771,414.70838 266.85337,413.60879 271.125,413.34375 L 280.28125,416.15625 C 280.47331,416.21503 280.67491,416.23625 280.875,416.21875 L 296.46875,414.84375 C 296.58531,414.83582 296.70061,414.81486 296.8125,414.78125 C 298.48792,414.24241 300.33895,414.13353 302.40625,413.75 C 304.47355,413.36647 306.76795,412.60413 308.9375,410.6875 C 309.0052,410.63042 309.06792,410.5677 309.125,410.5 C 310.09527,409.26906 310.06948,407.84909 309.875,406.375 C 309.70336,405.07402 309.21645,403.71096 308.625,402.40625 C 309.16729,397.38405 308.03063,394.22812 306,392.03125 C 305.91489,391.94785 305.82053,391.87446 305.71875,391.8125 C 303.64912,390.40644 301.65579,389.99094 300,390.25 z "
       transform="matrix(1,0,0,0.9616419,0,16.543272)" />
    <path
       style="fill:#660099;fill-opacity:1;fill-rule:evenodd;stroke:none;stroke-width:1px;stroke-linecap:butt;stroke-linejoin:miter;stroke-opacity:1"
       d="M 271.29727,412.4957 C 266.66989,412.72959 263.57035,413.88925 255.70705,411.2831 C 254.29601,408.88463 252.4688,403.72095 255.70705,401.91552 C 254.51661,397.60954 255.92603,395.30366 258.49026,393.88619 C 262.28515,392.69028 263.0342,394.42337 264.75247,395.22441 C 266.77423,394.74886 268.88671,392.44831 271.57986,394.55531 C 276.57333,399.9082 274.77086,405.26109 275.75466,410.61398 L 280.75591,414.62865 L 286.17037,409.27576 C 286.42867,403.30489 286.61147,397.70533 290.49713,393.88619 C 292.48631,393.32424 294.59038,393.09375 297.32451,394.68092 C 298.77497,393.54841 301.20627,392.17628 304.84769,394.55531 C 306.67203,396.45329 307.67585,398.86857 307.06573,403.65112 C 308.36017,406.14356 308.83773,409.20915 307.89217,410.36273 C 304.04349,413.6323 300.19481,412.76924 296.34612,413.95954 L 280.75591,415.29776 L 271.29727,412.4957 z "
       id="path4158"
       sodipodi:nodetypes="ccccccccccccccccc" />
    <path
       style="fill:#660099;fill-opacity:1;fill-rule:evenodd;stroke:none;stroke-width:2;stroke-linecap:butt;stroke-linejoin:miter;stroke-miterlimit:4;stroke-dasharray:none;stroke-opacity:1;display:inline"
       d="M 225.5381,429.60931 L 225.5381,414.7814 C 224.98134,412.48876 224.46375,411.88783 223.62502,410.63495 C 222.61246,409.64505 219.61478,408.83673 213.71638,408.9874 C 204.58686,409.62267 204.95535,408.80138 203.23698,403.88019 C 203.2728,402.36995 201.95269,401.05185 204.15098,399.5416 C 200.53716,398.01382 201.70797,395.59669 202.83735,393.36329 C 207.53254,390.63619 208.03216,391.75143 210.34722,392.34737 C 209.638,390.15969 212.44476,389.23971 216.34364,389.46416 C 221.11025,390.07864 223.64042,400.87717 222.53989,402.45239 C 223.24165,404.10575 223.61092,405.82291 225.33828,406.98313 L 225.50941,395.36758 C 223.26475,392.82443 220.54415,391.79034 218.17233,387.74688 C 216.46059,384.82872 216.07884,382.46078 217.40009,379.77104 C 218.77775,378.23314 220.89,378.30024 222.75405,377.50566 C 222.86198,375.69093 224.73739,374.29219 227.46552,373.79869 C 230.6153,372.92689 231.5455,376.66557 233.46195,377.91755 C 234.60413,378.27158 235.7463,378.3385 236.88848,379.1532 C 243.20262,385.37474 232.42631,391.89451 230.03542,395.62868 L 230.03542,407.1615 L 231.85957,404.69018 C 232.56684,399.74019 231.8463,390.76326 241.48906,388.67992 C 244.22073,389.46132 244.2268,392.15026 246.02556,391.94928 C 248.02437,392.31943 250.02318,391.16126 252.02199,393.3495 C 252.62818,395.83801 255.13668,397.31448 251.31164,399.74754 C 252.41431,402.11222 252.547,403.04264 252.30785,404.69018 C 249.25225,411.17851 243.76899,408.19102 239.45837,409.19335 C 237.17807,408.89177 235.06232,408.94057 232.97074,409.39693 C 232.04934,409.70896 231.12795,410.20944 230.20655,411.03306 C 229.0749,415.18012 229.51531,423.55452 229.6071,429.81526 L 225.5381,429.60931 z "
       id="path4164"
       sodipodi:nodetypes="ccccccccccccscccccccccccccccccc" />
  </g>
  <g
     inkscape:label="盾"
     style="display:inline"
     id="layer3"
     inkscape:groupmode="layer">
    <g
       style="stroke:#ffffff;stroke-width:1.16477764;stroke-miterlimit:4;stroke-dasharray:none;stroke-opacity:1;display:inline"
       id="g12994"
       transform="matrix(-1.3786303,-0.2308913,-0.1959722,1.1701318,725.90799,34.848638)">
      <rect
         style="fill:#330066;fill-opacity:1;fill-rule:evenodd;stroke:#ffffff;stroke-width:1.16477764;stroke-linecap:butt;stroke-linejoin:miter;stroke-miterlimit:4;stroke-dasharray:none;stroke-dashoffset:0;stroke-opacity:1"
         id="rect12996"
         width="11.03656"
         y="376.70602"
         x="224.14044"
         height="12.795732" />
      <path
         style="fill:#660099;fill-opacity:1;fill-rule:evenodd;stroke:#ffffff;stroke-width:1.55303681;stroke-linecap:butt;stroke-linejoin:miter;stroke-miterlimit:4;stroke-dasharray:none;stroke-dashoffset:0;stroke-opacity:1;display:inline"
         id="path12998"
         sodipodi:nodetypes="ccccccccc"
         d="M 208.10832,373.16425 L 208.10832,373.38474 L 212.62118,381.29054 L 208.10832,389.32232 L 208.10832,389.54281 L 235.32095,389.54281 L 224.48639,381.35353 L 228.46074,373.16425 L 208.10832,373.16425 z " />
    </g>
    <g
       id="g12910"
       transform="matrix(1.3786303,-0.2308913,0.1959722,1.1701318,-166.13455,34.765367)">
      <rect
         style="fill:#330066;fill-opacity:1;fill-rule:evenodd;stroke:none;stroke-width:1;stroke-linecap:butt;stroke-linejoin:miter;stroke-miterlimit:4;stroke-dasharray:none;stroke-dashoffset:0;stroke-opacity:1"
         id="rect12907"
         width="11.03656"
         y="376.70602"
         x="224.14044"
         height="12.795732" />
      <path
         style="fill:#660099;fill-opacity:1;fill-rule:evenodd;stroke:#ffffff;stroke-width:1.55303681;stroke-linecap:butt;stroke-linejoin:miter;stroke-miterlimit:4;stroke-dasharray:none;stroke-dashoffset:0;stroke-opacity:1;display:inline"
         id="rect12902"
         sodipodi:nodetypes="ccccccccc"
         d="M 208.10832,373.16425 L 208.10832,373.38474 L 212.62118,381.29054 L 208.10832,389.32232 L 208.10832,389.54281 L 235.32095,389.54281 L 224.48639,381.35353 L 228.46074,373.16425 L 208.10832,373.16425 z " />
    </g>
    <path
       style="fill:#ffffff;fill-opacity:1;fill-rule:evenodd;stroke:#ffffff;stroke-width:0.96351248;stroke-linecap:butt;stroke-linejoin:miter;stroke-miterlimit:4;stroke-dasharray:none;stroke-opacity:1"
       inkscape:original="M 223.8125 411.53125 L 227.625 492 L 279.6875 523 L 331.75 492 L 335.5625 411.53125 L 279.6875 415.5625 L 223.8125 411.53125 z "
       sodipodi:type="inkscape:offset"
       d="M 223.75,409 C 223.07158,409.02059 222.43021,409.31421 221.97131,409.8143 C 221.51241,410.31438 221.27485,410.97856 221.3125,411.65625 L 225.125,492.125 C 225.16747,492.96284 225.62446,493.7245 226.34375,494.15625 L 278.40625,525.15625 C 279.19654,525.62343 280.17846,525.62343 280.96875,525.15625 L 333.03125,494.15625 C 333.75054,493.7245 334.20753,492.96284 334.25,492.125 L 338.0625,411.65625 C 338.09474,410.9396 337.81974,410.24322 337.30655,409.74196 C 336.79335,409.2407 336.0907,408.98216 335.375,409.03125 L 279.6875,413.0625 L 224,409.03125 C 223.91724,409.01667 223.8338,409.00624 223.75,409 L 223.75,409 z "
       transform="matrix(0.8872943,0,0,0.8386191,31.918214,75.234104)"
       id="path9989"
       inkscape:radius="2.517493" />
    <path
       style="fill:#660099;fill-opacity:1;fill-rule:evenodd;stroke:#660099;stroke-width:4.22100019;stroke-linecap:butt;stroke-linejoin:miter;stroke-miterlimit:4;stroke-dasharray:none;stroke-opacity:1;display:inline"
       d="M 232.22524,421.9689 L 235.47603,487.0446 L 279.8543,512.11696 L 324.23257,487.0446 L 327.48336,421.9689 L 279.8543,425.22077 L 232.22524,421.9689 z "
       sodipodi:nodetypes="ccccccc"
       id="path9018" />
    <path
       sodipodi:type="inkscape:offset"
       inkscape:radius="-3.6078463"
       inkscape:original="M 235.0625 441.15625 L 238.3125 506.25 L 282.6875 531.3125 L 327.0625 506.25 L 330.3125 441.15625 L 282.6875 444.40625 L 235.0625 441.15625 z "
       style="fill:#ffffff;fill-opacity:1;fill-rule:evenodd;stroke:none;stroke-width:4.22100019;stroke-linecap:butt;stroke-linejoin:miter;stroke-miterlimit:4;stroke-dasharray:none;stroke-opacity:1;display:inline"
       id="path4401"
       d="M 238.84375,445.03125 L 241.8125,504.0625 L 282.6875,527.15625 L 323.5625,504.0625 L 326.53125,445.03125 L 282.9375,448 C 282.77103,448.01156 282.60397,448.01156 282.4375,448 L 238.84375,445.03125 z "
       transform="translate(-2.5471497,-18.946457)" />
    <path
       style="fill:#ffffff;fill-opacity:1;fill-rule:evenodd;stroke:#ffffff;stroke-width:4.22100019;stroke-linecap:butt;stroke-linejoin:miter;stroke-miterlimit:4;stroke-dasharray:none;stroke-opacity:1;display:inline"
       d="M 498.99519,392.03582 L 502.24598,457.11152 L 546.62425,482.18388 L 591.00252,457.11152 L 594.25331,392.03582 L 546.62425,395.28769 L 498.99519,392.03582 z "
       sodipodi:nodetypes="ccccccc"
       id="path4394"
       clip-path="url(#clipPath4420)"
       transform="translate(-266.76611,29.556473)" />
    <path
       style="fill:#660099;fill-opacity:1;fill-rule:evenodd;stroke:#ffffff;stroke-width:1.95496166;stroke-linecap:butt;stroke-linejoin:miter;stroke-miterlimit:4;stroke-dasharray:none;stroke-dashoffset:0;stroke-opacity:1"
       d="M 217.83602,409.40073 C 217.83602,409.40073 248.89417,402.48123 279.95228,402.48123 C 311.01043,402.48123 342.06857,409.40073 342.06857,409.40073 L 342.06857,428.88035 C 342.06857,428.88035 311.01043,421.96085 279.95228,421.96085 C 248.89417,421.96085 217.83602,428.88035 217.83602,428.88035 L 217.83602,409.40073 z "
       sodipodi:nodetypes="csccscc"
       id="rect12898" />
    <g
       id="g4732"
       clip-path="url(#clipPath4769)"
       transform="translate(-958.86573,-65.17841)">
      <path
         inkscape:tile-cy="498.40605"
         inkscape:tile-cx="1213.5051"
         inkscape:tile-h="62.14438"
         inkscape:tile-w="103.0687"
         sodipodi:nodetypes="ccccc"
         id="path4590"
         d="M 1177.4411,467.33386 L 1192.9114,476.66157 L 1177.4411,485.98928 L 1161.9707,476.66157 L 1177.4411,467.33386 z "
         style="fill:#660099;fill-opacity:0.2;stroke:none;stroke-width:4.22100019;stroke-miterlimit:4;stroke-opacity:1;display:inline" />
      <use
         height="1052.3622"
         width="744.09448"
         id="use4664"
         transform="translate(0,18.655419)"
         xlink:href="#path4590"
         inkscape:tiled-clone-of="#path4590"
         y="0"
         x="0" />
      <use
         height="1052.3622"
         width="744.09448"
         id="use4666"
         transform="translate(0,37.310839)"
         xlink:href="#path4590"
         inkscape:tiled-clone-of="#path4590"
         y="0"
         x="0" />
      <use
         height="1052.3622"
         width="744.09448"
         id="use4668"
         transform="translate(0,55.966258)"
         xlink:href="#path4590"
         inkscape:tiled-clone-of="#path4590"
         y="0"
         x="0" />
      <use
         height="1052.3622"
         width="744.09448"
         id="use4670"
         transform="translate(0,74.621677)"
         xlink:href="#path4590"
         inkscape:tiled-clone-of="#path4590"
         y="0"
         x="0" />
      <use
         height="1052.3622"
         width="744.09448"
         id="use4672"
         transform="translate(0,93.277097)"
         xlink:href="#path4590"
         inkscape:tiled-clone-of="#path4590"
         y="0"
         x="0" />
      <use
         height="1052.3622"
         width="744.09448"
         id="use4674"
         transform="translate(0,111.93252)"
         xlink:href="#path4590"
         inkscape:tiled-clone-of="#path4590"
         y="0"
         x="0" />
      <use
         height="1052.3622"
         width="744.09448"
         id="use4676"
         transform="translate(30.940687,0)"
         xlink:href="#path4590"
         inkscape:tiled-clone-of="#path4590"
         y="0"
         x="0" />
      <use
         height="1052.3622"
         width="744.09448"
         id="use4678"
         transform="translate(30.940687,18.655419)"
         xlink:href="#path4590"
         inkscape:tiled-clone-of="#path4590"
         y="0"
         x="0" />
      <use
         height="1052.3622"
         width="744.09448"
         id="use4680"
         transform="translate(30.940687,37.310839)"
         xlink:href="#path4590"
         inkscape:tiled-clone-of="#path4590"
         y="0"
         x="0" />
      <use
         height="1052.3622"
         width="744.09448"
         id="use4682"
         transform="translate(30.940687,55.966258)"
         xlink:href="#path4590"
         inkscape:tiled-clone-of="#path4590"
         y="0"
         x="0" />
      <use
         height="1052.3622"
         width="744.09448"
         id="use4684"
         transform="translate(30.940687,74.621677)"
         xlink:href="#path4590"
         inkscape:tiled-clone-of="#path4590"
         y="0"
         x="0" />
      <use
         height="1052.3622"
         width="744.09448"
         id="use4686"
         transform="translate(30.940687,93.277097)"
         xlink:href="#path4590"
         inkscape:tiled-clone-of="#path4590"
         y="0"
         x="0" />
      <use
         height="1052.3622"
         width="744.09448"
         id="use4688"
         transform="translate(30.940687,111.93252)"
         xlink:href="#path4590"
         inkscape:tiled-clone-of="#path4590"
         y="0"
         x="0" />
      <use
         height="1052.3622"
         width="744.09448"
         id="use4690"
         transform="translate(61.881374,0)"
         xlink:href="#path4590"
         inkscape:tiled-clone-of="#path4590"
         y="0"
         x="0" />
      <use
         height="1052.3622"
         width="744.09448"
         id="use4692"
         transform="translate(61.881374,18.655419)"
         xlink:href="#path4590"
         inkscape:tiled-clone-of="#path4590"
         y="0"
         x="0" />
      <use
         height="1052.3622"
         width="744.09448"
         id="use4694"
         transform="translate(61.881374,37.310839)"
         xlink:href="#path4590"
         inkscape:tiled-clone-of="#path4590"
         y="0"
         x="0" />
      <use
         height="1052.3622"
         width="744.09448"
         id="use4696"
         transform="translate(61.881374,55.966258)"
         xlink:href="#path4590"
         inkscape:tiled-clone-of="#path4590"
         y="0"
         x="0" />
      <use
         height="1052.3622"
         width="744.09448"
         id="use4698"
         transform="translate(61.881374,74.621677)"
         xlink:href="#path4590"
         inkscape:tiled-clone-of="#path4590"
         y="0"
         x="0" />
      <use
         height="1052.3622"
         width="744.09448"
         id="use4700"
         transform="translate(61.881374,93.277097)"
         xlink:href="#path4590"
         inkscape:tiled-clone-of="#path4590"
         y="0"
         x="0" />
      <use
         height="1052.3622"
         width="744.09448"
         id="use4702"
         transform="translate(61.881374,111.93252)"
         xlink:href="#path4590"
         inkscape:tiled-clone-of="#path4590"
         y="0"
         x="0" />
      <use
         height="1052.3622"
         width="744.09448"
         id="use4704"
         transform="translate(92.822061,0)"
         xlink:href="#path4590"
         inkscape:tiled-clone-of="#path4590"
         y="0"
         x="0" />
      <use
         height="1052.3622"
         width="744.09448"
         id="use4706"
         transform="translate(92.822061,18.655419)"
         xlink:href="#path4590"
         inkscape:tiled-clone-of="#path4590"
         y="0"
         x="0" />
      <use
         height="1052.3622"
         width="744.09448"
         id="use4708"
         transform="translate(92.822061,37.310839)"
         xlink:href="#path4590"
         inkscape:tiled-clone-of="#path4590"
         y="0"
         x="0" />
      <use
         height="1052.3622"
         width="744.09448"
         id="use4710"
         transform="translate(92.822061,55.966258)"
         xlink:href="#path4590"
         inkscape:tiled-clone-of="#path4590"
         y="0"
         x="0" />
      <use
         height="1052.3622"
         width="744.09448"
         id="use4712"
         transform="translate(92.822061,74.621677)"
         xlink:href="#path4590"
         inkscape:tiled-clone-of="#path4590"
         y="0"
         x="0" />
      <use
         height="1052.3622"
         width="744.09448"
         id="use4714"
         transform="translate(92.822061,93.277097)"
         xlink:href="#path4590"
         inkscape:tiled-clone-of="#path4590"
         y="0"
         x="0" />
      <use
         height="1052.3622"
         width="744.09448"
         id="use4716"
         transform="translate(92.822061,111.93252)"
         xlink:href="#path4590"
         inkscape:tiled-clone-of="#path4590"
         y="0"
         x="0" />
      <use
         height="1052.3622"
         width="744.09448"
         id="use4718"
         transform="translate(123.76275,0)"
         xlink:href="#path4590"
         inkscape:tiled-clone-of="#path4590"
         y="0"
         x="0" />
      <use
         height="1052.3622"
         width="744.09448"
         id="use4720"
         transform="translate(123.76275,18.655419)"
         xlink:href="#path4590"
         inkscape:tiled-clone-of="#path4590"
         y="0"
         x="0" />
      <use
         height="1052.3622"
         width="744.09448"
         id="use4722"
         transform="translate(123.76275,37.310839)"
         xlink:href="#path4590"
         inkscape:tiled-clone-of="#path4590"
         y="0"
         x="0" />
      <use
         height="1052.3622"
         width="744.09448"
         id="use4724"
         transform="translate(123.76275,55.966258)"
         xlink:href="#path4590"
         inkscape:tiled-clone-of="#path4590"
         y="0"
         x="0" />
      <use
         height="1052.3622"
         width="744.09448"
         id="use4726"
         transform="translate(123.76275,74.621677)"
         xlink:href="#path4590"
         inkscape:tiled-clone-of="#path4590"
         y="0"
         x="0" />
      <use
         height="1052.3622"
         width="744.09448"
         id="use4728"
         transform="translate(123.76275,93.277097)"
         xlink:href="#path4590"
         inkscape:tiled-clone-of="#path4590"
         y="0"
         x="0" />
      <use
         height="1052.3622"
         width="744.09448"
         id="use4730"
         transform="translate(123.76275,111.93252)"
         xlink:href="#path4590"
         inkscape:tiled-clone-of="#path4590"
         y="0"
         x="0" />
    </g>
    <g
       transform="translate(99.967131,348.32967)"
       i:rgbTrio="#FFFFFFFF4F00"
       i:dimmedPercent="3"
       i:layer="yes"
       id="ホシザキユキノシタ">
      <path
         style="fill:#660099;stroke:#660099;stroke-width:1.56190002"
         id="path534"
         d="M 181.04,106.224 L 195.078,98.843 L 192.397,114.476 L 203.752,125.546 L 188.059,127.825 L 181.039,142.048 L 174.021,127.825 L 158.327,125.546 L 169.681,114.476 L 167.001,98.843 L 181.04,106.224 z "
         i:knockout="Off" />
      <path
         style="fill:none;stroke:#660099;stroke-width:3.24000001"
         id="path536"
         d="M 151.421,121.217 L 180.376,118.7"
         i:knockout="Off" />
      <path
         style="fill:#660099;stroke:#660099;stroke-width:1.62"
         id="path538"
         d="M 151.505,118.248 C 152.817,118.09 154.032,119.233 154.225,120.809 C 154.416,122.379 153.509,123.786 152.203,123.946 C 150.891,124.106 149.676,122.96 149.483,121.387 C 149.291,119.812 150.197,118.407 151.505,118.248 z "
         i:knockout="Off" />
      <path
         style="fill:none;stroke:#660099;stroke-width:3.24000001"
         id="path540"
         d="M 166.56,88.349 L 176.419,115.687"
         i:knockout="Off" />
      <path
         style="fill:#660099;stroke:#660099;stroke-width:1.62"
         id="path542"
         d="M 169.452,89.039 C 169.227,90.342 167.782,91.178 166.218,90.91 C 164.657,90.642 163.572,89.371 163.795,88.072 C 164.017,86.771 165.462,85.935 167.026,86.201 C 168.587,86.468 169.673,87.74 169.452,89.039 z "
         i:knockout="Off" />
      <path
         style="fill:none;stroke:#660099;stroke-width:3.24000001"
         id="path544"
         d="M 180.903,147.262 L 180.903,118.2"
         i:knockout="Off" />
      <path
         style="fill:#660099;stroke:#660099;stroke-width:1.62"
         id="path546"
         d="M 183.856,146.923 C 183.899,145.603 182.653,144.491 181.067,144.435 C 179.485,144.38 178.165,145.406 178.118,146.72 C 178.073,148.04 179.319,149.153 180.903,149.21 C 182.487,149.264 183.808,148.24 183.856,146.923 z "
         i:knockout="Off" />
      <path
         style="fill:none;stroke:#660099;stroke-width:3.24000001"
         id="path548"
         d="M 195.063,88.349 L 185.204,115.687"
         i:knockout="Off" />
      <path
         style="fill:#660099;stroke:#660099;stroke-width:1.62"
         id="path550"
         d="M 192.171,89.039 C 192.396,90.342 193.842,91.178 195.404,90.91 C 196.966,90.642 198.05,89.371 197.829,88.072 C 197.605,86.771 196.16,85.935 194.597,86.201 C 193.036,86.468 191.95,87.74 192.171,89.039 z "
         i:knockout="Off" />
      <path
         style="fill:none;stroke:#660099;stroke-width:3.24000001"
         id="path552"
         d="M 209.756,121.379 L 180.802,118.862"
         i:knockout="Off" />
      <path
         style="fill:#660099;stroke:#660099;stroke-width:1.62"
         id="path554"
         d="M 209.672,118.41 C 208.361,118.252 207.146,119.396 206.952,120.971 C 206.761,122.541 207.668,123.948 208.974,124.108 C 210.285,124.268 211.502,123.123 211.695,121.549 C 211.887,119.974 210.979,118.569 209.672,118.41 z "
         i:knockout="Off" />
      <g
         id="g556">
        <g
           id="g558">
          <path
             style="fill:#ffdcdc;stroke:#660099;stroke-width:1.79999995"
             id="path560"
             d="M 152.598,100.132 C 152.598,100.132 151.089,106.343 155.835,110.362 C 160.58,114.383 169.067,114.085 169.067,114.085 C 169.067,114.085 168.051,105.734 163.221,101.642 C 158.39,97.55 152.598,100.132 152.598,100.132 z "
             i:knockout="Off" />
        </g>
        <path
           style="fill:#ffdcdc;stroke:#63117d;stroke-width:1.79999995"
           id="path562"
           d="M 168.349,110.833 L 181.582,124.796 L 165.742,113.91"
           i:knockout="Off" />
      </g>
      <g
         id="g564">
        <path
           style="fill:#ffffff;stroke:#660099;stroke-width:1.79999995"
           id="path566"
           d="M 163.535,143.79 C 163.535,143.79 169.915,145.162 172.847,140.762 C 175.779,136.365 173.71,128.519 173.71,128.519 C 173.71,128.519 165.724,129.552 162.74,134.031 C 159.756,138.508 163.535,143.79 163.535,143.79 z "
           i:knockout="Off" />
        <path
           style="fill:#ffffff;stroke:#63117d;stroke-width:1.79999995"
           id="path568"
           d="M 174.339,132.433 L 185.833,110.995 L 170.476,129.86"
           i:knockout="Off" />
      </g>
      <g
         id="g570">
        <g
           id="g572">
          <path
             style="fill:#ffdcdc;stroke:#660099;stroke-width:1.79999995"
             id="path574"
             d="M 210.232,98.612 C 210.232,98.612 211.88,104.97 206.87,108.914 C 201.857,112.857 192.837,112.298 192.837,112.298 C 192.837,112.298 193.856,103.842 198.955,99.826 C 204.058,95.814 210.232,98.612 210.232,98.612 z "
             i:knockout="Off" />
        </g>
        <path
           style="fill:#ffdcdc;stroke:#63117d;stroke-width:1.79999995"
           id="path576"
           d="M 193.577,109.013 L 179.62,122.81 L 196.369,112.222"
           i:knockout="Off" />
      </g>
      <g
         id="g578">
        <g
           id="g580">
          <path
             style="fill:#ffdcdc;stroke:#660099;stroke-width:1.79999995"
             id="path582"
             d="M 181.946,87.562 C 181.946,87.562 175.102,90.492 175.102,96.861 C 175.102,103.226 181.946,109.659 181.946,109.659 C 181.946,109.659 188.791,103.34 188.791,96.861 C 188.791,90.377 181.946,87.562 181.946,87.562 z "
             i:knockout="Off" />
        </g>
        <path
           style="fill:#ffdcdc;stroke:#63117d;stroke-width:1.79999995"
           id="path584"
           d="M 184.362,106.945 L 181.845,126.523 L 179.532,106.945"
           i:knockout="Off" />
      </g>
      <g
         id="g586">
        <path
           style="fill:#ffffff;stroke:#660099;stroke-width:1.79999995"
           id="path588"
           d="M 198.998,144.493 C 198.998,144.493 192.618,145.864 189.685,141.465 C 186.753,137.066 188.824,129.221 188.824,129.221 C 188.824,129.221 196.809,130.254 199.793,134.732 C 202.776,139.21 198.998,144.493 198.998,144.493 z "
           i:knockout="Off" />
        <path
           style="fill:#ffffff;stroke:#63117d;stroke-width:1.79999995"
           id="path590"
           d="M 188.193,133.135 L 176.698,111.697 L 192.055,130.562"
           i:knockout="Off" />
      </g>
      <path
         style="fill:#ffffff;stroke:#ffffff;stroke-width:1.13399994"
         id="path592"
         d="M 174.921,106.794 C 174.765,107.705 173.753,108.29 172.656,108.105 C 171.565,107.917 170.805,107.027 170.962,106.119 C 171.116,105.209 172.128,104.623 173.222,104.808 C 174.315,104.996 175.076,105.886 174.921,106.794 z "
         i:knockout="Off" />
      <path
         style="fill:none;stroke:#ffffff;stroke-width:2.35389996"
         id="path594"
         d="M 173.907,107.789 L 181.264,121.248"
         i:knockout="Off" />
      <path
         style="fill:#ffffff;stroke:#ffffff;stroke-width:1.13399994"
         id="path596"
         d="M 187.337,107.118 C 187.495,108.029 188.507,108.615 189.601,108.428 C 190.694,108.241 191.453,107.35 191.298,106.442 C 191.142,105.531 190.13,104.946 189.036,105.132 C 187.941,105.318 187.183,106.208 187.337,107.118 z "
         i:knockout="Off" />
      <path
         style="fill:none;stroke:#ffffff;stroke-width:2.35389996"
         id="path598"
         d="M 189.689,106.736 L 182.331,120.195"
         i:knockout="Off" />
      <path
         style="fill:#ffffff;stroke:#ffffff;stroke-width:1.13399994"
         id="path600"
         d="M 166.352,121.208 C 167.27,121.097 168.121,121.898 168.255,123.001 C 168.389,124.102 167.755,125.084 166.841,125.195 C 165.923,125.308 165.071,124.506 164.936,123.404 C 164.802,122.302 165.437,121.32 166.352,121.208 z "
         i:knockout="Off" />
      <path
         style="fill:none;stroke:#ffffff;stroke-width:2.35389996"
         id="path602"
         d="M 168.099,122.919 L 182.863,118.751"
         i:knockout="Off" />
      <path
         style="fill:#ffffff;stroke:#ffffff;stroke-width:1.13399994"
         id="path604"
         d="M 182.907,134.697 C 182.938,133.771 182.067,132.994 180.956,132.955 C 179.849,132.915 178.926,133.634 178.892,134.555 C 178.861,135.479 179.732,136.257 180.842,136.297 C 181.95,136.335 182.874,135.618 182.907,134.697 z "
         i:knockout="Off" />
      <path
         style="fill:#ffffff;stroke:#ffffff;stroke-width:1.13399994"
         id="path606"
         d="M 196.581,121.196 C 195.664,121.084 194.813,121.886 194.678,122.988 C 194.543,124.088 195.179,125.071 196.093,125.183 C 197.012,125.295 197.864,124.493 197.997,123.392 C 198.132,122.291 197.497,121.306 196.581,121.196 z "
         i:knockout="Off" />
      <path
         style="fill:none;stroke:#ffffff;stroke-width:2.35389996"
         id="path608"
         d="M 180.987,134.297 L 180.852,118.958"
         i:knockout="Off" />
      <path
         style="fill:none;stroke:#ffffff;stroke-width:2.35389996"
         id="path610"
         d="M 181.849,117.705 L 196.142,123.267"
         i:knockout="Off" />
      <path
         style="fill:#ffff00;stroke:#ffff00"
         id="path612"
         d="M 171.506,116.779 L 178.296,115.918 L 181.437,109.835 L 184.355,116.027 L 191.11,117.132 L 186.123,121.821 L 187.158,128.587 L 181.158,125.293 L 175.043,128.368 L 176.321,121.643 L 171.506,116.779 z "
         i:knockout="Off" />
    </g>
    <text
       xml:space="preserve"
       style="font-size:7.00000095px;stroke:#ffffff;stroke-width:0.60000002;stroke-miterlimit:4;stroke-dasharray:none;stroke-opacity:1;display:inline"
       id="text3421"
       transform="matrix(0.99896,4.5594161e-2,-4.5594161e-2,0.99896,30.336956,0.4806904)"><textPath
         xlink:href="#rect12898"
         id="textPath3435"><tspan
   id="tspan3425"
   style="fill:#ffffff;fill-opacity:1;stroke:#ffffff;stroke-width:0.60000002;stroke-miterlimit:4;stroke-dasharray:none;stroke-opacity:1">ESTABLISHED 1997 TSUKUBA</tspan></textPath></text>
  </g>
</svg>
